HIERARCHY
ROOT pelvis
{
  OFFSET 0 100 0
  CHANNELS 6 Xposition Yposition Zposition Zrotation Xrotation Yrotation
  JOINT pelvis_right_femur
  {
    OFFSET -10.78128 -3.44521 -0.5502486
    CHANNELS 3 Zrotation Xrotation Yrotation
    JOINT right_femur_tibia
    {
      OFFSET -0.8047443 -44.0398 -0.1307829
      CHANNELS 3 Zrotation Xrotation Yrotation
      JOINT right_tibia_foot
      {
        OFFSET 3.006224 -47.83518 -5
        CHANNELS 3 Zrotation Xrotation Yrotation
        End Site
        {
          OFFSET 0 -5 15
        }
      }
    }
  }
  JOINT pelvis_left_femur
  {
    OFFSET 10.78128 -3.44521 -0.5502486
    CHANNELS 3 Zrotation Xrotation Yrotation
    JOINT left_femur_tibia
    {
      OFFSET 0.8047443 -44.0398 -0.1307829
      CHANNELS 3 Zrotation Xrotation Yrotation
      JOINT left_tibia_foot
      {
        OFFSET -4.370144 -48.10324 -4.275266
        CHANNELS 3 Zrotation Xrotation Yrotation
        End Site
        {
          OFFSET 0 -5 15
        }
      }
    }
  }
  JOINT pelvis_spine1
  {
    OFFSET 0 6.468898 -3.129235
    CHANNELS 3 Zrotation Xrotation Yrotation
    JOINT spine1
    {
      OFFSET 0 23.15396 4.99043
      CHANNELS 3 Zrotation Xrotation Yrotation
      JOINT spine2
      {
        OFFSET 0 20.79997 -5.064912
        CHANNELS 3 Zrotation Xrotation Yrotation
        JOINT neck
        {
          OFFSET 0 14.38658 9.616178
          CHANNELS 3 Zrotation Xrotation Yrotation
          End Site
          {
            OFFSET 0 20 0
          }
        }
      }
      JOINT right_manubrium
      {
        OFFSET -5.722621 16.35077 3.967754
        CHANNELS 3 Zrotation Xrotation Yrotation
        JOINT right_clavicle
        {
          OFFSET -13.16364 1.694482 -4.693211
          CHANNELS 3 Zrotation Xrotation Yrotation
          JOINT right_humerus
          {
            OFFSET -28.5034 -0.3100689 -2.792744
            CHANNELS 3 Zrotation Xrotation Yrotation
            JOINT right_radius
            {
              OFFSET -25.15693 0.02248979 -1.271978
              CHANNELS 3 Zrotation Xrotation Yrotation
              End Site
              {
                OFFSET -15 0 0
              }
            }
          }
        }
      }
      JOINT left_manubrium
      {
        OFFSET 5.722621 16.35077 3.967754
        CHANNELS 3 Zrotation Xrotation Yrotation
        JOINT left_clavicle
        {
          OFFSET 13.16364 1.694482 -4.693211
          CHANNELS 3 Zrotation Xrotation Yrotation
          JOINT left_humerus
          {
            OFFSET 29.39168 -1.063119 -2.237045
            CHANNELS 3 Zrotation Xrotation Yrotation
            JOINT left_radius
            {
              OFFSET 24.59957 -0.9528479 0.9047498
              CHANNELS 3 Zrotation Xrotation Yrotation
              End Site
              {
                OFFSET 15 -0 -0
              }
            }
          }
        }
      }
    }
  }
}
MOTION
Frames: 15
Frame Time: 0.0416666666667
0 103.5113 0 1.866367 -2.447146 0.06007752 1.358857 -10.5833 7.760555 -0 37.65418 -0 -6.345176 -17.74298 -3.590448 -7.270945 11.03417 -23.56916 -0 4.855068 -0 7.62013 -15.42322 26.17866 -2.859125 -4.305863 5.181933 3.440071 9.754504 -8.305185 1.443008 21.59503 5.770055 1.847148 -26.39253 9.702822 5.706259 -19.83546 11.17938 86.25206 33.14098 -21.27283 -0 0 15.98517 -5.794224 7.832266 2.810616 6.382162 -20.69301 -0.5692642 -95.80747 26.27431 24.15563 0 0 -14.35177 9.404599 17.69949 3.021896
0.289057 103.803 1.453915 1.499334 -1.608039 -0.002353694 2.169196 -13.1214 8.241822 -0 37.7433 -0 -6.267473 -17.36046 -3.585298 -7.217439 11.44688 -23.87507 -0 5.068923 -0 7.109905 -16.75565 26.37625 -2.785592 -4.187211 5.170394 3.396612 9.761749 -8.264035 1.445889 21.55758 5.799567 1.909263 -26.35838 9.673915 5.716038 -19.7534 11.18353 86.26029 33.25446 -21.19788 -0 0 15.87268 -5.879364 7.904076 2.905815 6.368488 -20.68929 -0.5880949 -95.67479 26.19131 24.01542 0 0 -14.43857 9.425344 17.54701 3.013774
0.6492881 103.4202 3.90687 0.6448258 -0.2416741 0.1185835 3.038367 -21.76224 5.714659 -0 28.81973 -0 -5.726086 -11.84075 -2.918588 -6.761019 11.7796 -19.9419 -0 3.460564 -0 6.412935 -19.43926 23.44619 -1.361363 -1.728895 4.664219 2.543538 9.998783 -7.520941 1.393381 20.75379 6.706386 3.331194 -25.37706 9.087497 5.857568 -17.90809 11.37376 86.57478 35.27736 -19.79092 -0 0 13.00887 -8.717666 9.801127 5.398908 6.241307 -20.7999 -1.218299 -92.2157 23.48257 20.1428 0 0 -16.72008 10.21122 13.88554 2.26633
0.9680135 102.988 6.595106 0.1639142 1.244433 0.3328733 4.243998 -26.33935 5.926899 -0 25.97475 -0 -5.527579 -10.03659 -2.487848 -6.736108 12.31333 -19.34892 -0 4.316087 -0 6.683428 -20.68725 23.1018 -1.369339 -1.841462 4.505447 3.046828 9.784095 -8.048748 1.43877 20.44339 6.836602 3.241248 -26.36417 9.534164 5.752965 -18.02704 11.39684 87.24318 35.47503 -21.00873 -0 0 12.90903 -6.951675 9.319209 4.48763 6.357165 -20.9975 -0.9755452 -92.0675 24.10288 19.92261 0 0 -18.50401 10.73824 13.76135 2.015057
1.243235 102.4913 9.902854 -0.4127098 2.786492 0.688114 5.551201 -31.82752 5.166562 -0 20.8378 -0 -6.021985 -6.237599 -1.285285 -6.683875 13.23466 -18.08343 -0 6.509642 -0 6.874664 -21.82553 22.13053 -1.09616 -1.491099 4.317111 3.289284 9.693163 -8.347711 1.363448 20.06165 7.126963 3.387559 -26.84135 9.679102 5.582562 -17.80093 11.46524 87.94842 35.85235 -21.88024 -0 0 12.08701 -6.442642 9.300041 4.471172 6.361385 -21.23039 -1.119201 -91.14534 24.17634 19.03148 0 0 -20.87289 10.87046 12.60522 2.14485
1.469343 101.8613 13.96183 -0.7722827 3.293451 1.173473 5.830959 -34.90899 3.467487 -0 15.94108 -0 -6.708154 -2.512365 -0.3755985 -6.465967 14.47236 -16.42925 -0 9.257963 -0 4.965366 -22.87323 19.96863 -1.033271 -1.423211 4.254789 3.416013 9.634056 -8.486978 1.337207 19.92091 7.23647 3.41158 -27.0889 9.781306 5.498858 -17.77572 11.48536 88.22008 35.97719 -22.25313 -0 0 11.8469 -6.139693 9.232357 4.394787 6.380762 -21.3198 -1.138469 -90.85374 24.25615 18.77029 0 0 -21.79628 10.96537 12.23045 2.15751
1.630022 101.1388 19.00842 -0.865725 2.929438 1.773974 5.329221 -35.97828 1.065391 -0 10.88697 -0 -7.147686 1.264616 0.07064777 -6.167822 16.24855 -14.07685 -0 13.25712 -0 1.563632 -23.29884 16.63938 -0.9072647 -1.194335 4.17127 3.360393 9.684665 -8.461478 1.264157 19.81948 7.38723 3.548416 -26.92707 9.688787 5.458699 -17.57471 11.535 88.3617 36.09683 -22.28287 -0 0 11.34918 -6.702823 9.505447 4.804244 6.375528 -21.4131 -1.335586 -90.273 23.85595 18.1752 0 0 -22.47598 10.94395 11.59519 2.157016
1.718919 100.5154 25.01549 -0.7913098 2.016862 2.426486 4.854455 -34.68138 -0.3366284 -0 7.769856 -0 -6.725382 3.518386 -0.5809134 -5.775771 17.93482 -11.74113 -0 18.42289 -0 -2.144359 -22.32475 13.3033 -0.8514592 -0.9375741 4.043839 3.198166 9.779945 -8.311249 1.19144 19.80417 7.555409 3.738266 -26.51067 9.532168 5.460884 -17.30773 11.59195 88.3036 36.1781 -21.93895 -0 0 10.81751 -7.794495 9.943893 5.481245 6.40088 -21.46204 -1.567703 -89.58638 23.02012 17.34382 0 0 -22.67912 11.09131 11.02854 1.792415
1.738282 100.2648 31.77884 -0.7819346 0.8795185 2.969838 5.07222 -31.39123 0.06195385 -0 7.722183 -0 -5.663526 3.71246 -2.126789 -5.197201 18.71481 -9.959661 -0 25.07116 -0 -4.804973 -19.26733 11.01997 -0.8020283 -0.6114097 3.864421 2.97886 9.9079 -8.107826 1.094438 19.82582 7.754012 3.975395 -25.91476 9.300541 5.441041 -16.94616 11.65731 88.23999 36.15924 -21.50489 -0 0 10.08633 -9.285582 10.4704 6.384143 6.431751 -21.52444 -1.921182 -88.72127 21.96987 16.23667 0 0 -22.91914 11.19323 10.33104 1.378472
1.715884 100.6264 38.83262 -1.186735 0.08955482 3.162094 6.240851 -27.21152 2.228279 -0 10.7587 -0 -4.988673 1.732611 -3.58281 -4.311118 17.33506 -9.377657 -0 32.97564 -0 -5.81401 -14.40844 10.34912 -0.7641432 -0.2943243 3.677931 2.765376 10.04004 -7.918557 0.9923722 19.88278 7.921924 4.189992 -25.28052 9.035087 5.378896 -16.57102 11.71393 88.23897 35.9618 -21.16328 -0 0 9.29291 -10.81622 10.93522 7.284929 6.450952 -21.59898 -2.339924 -87.88738 21.03395 15.11461 0 0 -23.21366 11.12918 9.648239 1.132118
1.703492 101.6405 45.71296 -1.906225 -0.1828321 2.896988 7.760948 -23.21095 4.29098 -0 13.93629 -0 -5.985053 -0.637486 -3.667882 -3.422816 13.52932 -9.439529 -0 42.05979 -0 -5.712406 -9.446762 10.54725 -0.6902288 -0.01465507 3.554448 2.587489 10.18896 -7.800187 0.8923957 19.93884 7.999979 4.335264 -24.67382 8.719045 5.277853 -16.22641 11.76484 88.36498 35.53981 -21.0738 -0 0 8.539422 -12.20486 11.32287 8.058783 6.414402 -21.69779 -2.786538 -87.21727 20.477 14.21438 0 0 -23.56213 10.67647 8.979799 1.413338
1.715293 103.1276 52.26616 -2.176978 -0.8564279 2.298854 8.465103 -19.15487 4.618421 -0 14.621 -0 -8.058212 -1.632333 -2.928474 -2.997298 8.798633 -8.851748 -0 51.27893 -0 -4.772852 -6.32433 11.10702 -0.5995702 0.21248 3.552726 2.368221 10.36702 -7.662839 0.8468785 20.05597 7.921748 4.413346 -24.01766 8.339438 5.216362 -15.96237 11.78822 88.38904 34.96086 -20.89542 -0 0 8.146514 -13.44365 11.64875 8.670274 6.3033 -21.7118 -3.133412 -86.95989 20.30001 13.80688 0 0 -23.23241 9.894196 8.589762 2.157195
1.728287 104.8755 58.49972 -1.763235 -2.426214 1.544913 8.215315 -14.44562 3.726604 -0 13.7687 -0 -10.08009 -1.732532 -2.422262 -2.893873 3.887769 -7.659968 -0 58.16909 -0 -2.713332 -5.020769 12.09467 -0.5606496 0.4236727 3.696891 1.976551 10.55593 -7.299034 0.9044005 20.36564 7.66372 4.458471 -23.18401 7.904627 5.22937 -15.82131 11.74275 87.97302 34.35556 -19.99198 -0 0 8.369397 -14.67804 11.85595 9.238548 6.112606 -21.45767 -3.279749 -87.30123 20.31114 14.05957 0 0 -21.40837 9.029507 8.739452 2.981228
1.75029 106.6698 64.37105 -1.08149 -4.195345 0.7836872 7.603826 -9.086364 2.565658 -0 12.73621 -0 -11.71369 -2.326946 -2.035062 -2.623636 -1.779329 -6.670831 -0 61.1444 -0 -0.455975 -4.47921 12.97347 -0.6533191 0.60665 3.967448 1.397098 10.66243 -6.593297 1.053419 20.90367 7.314375 4.476627 -22.25703 7.529756 5.217009 -15.87495 11.60369 87.0175 33.85518 -18.07912 -0 0 9.157147 -15.96569 11.81973 9.898703 5.89993 -20.86464 -3.205563 -88.1685 20.29695 14.93138 0 0 -18.19586 8.403772 9.399509 3.443161
1.811131 108.2108 69.87836 -0.3454905 -5.53234 0.09979079 6.786904 -3.22968 1.458856 -0 11.69495 -0 -12.57475 -4.241107 -1.496221 -1.946011 -8.334588 -6.067466 -0 59.90646 -0 0.8164912 -4.202075 13.53793 -0.8543119 0.7069144 4.288042 0.7121294 10.60469 -5.624924 1.244891 21.57328 7.012173 4.474502 -21.38886 7.330828 5.073821 -16.12645 11.37281 85.72387 33.48328 -15.44702 -0 0 10.24457 -17.323 11.55794 10.68983 5.761898 -20.04402 -2.987117 -89.29298 20.12121 16.16631 0 0 -14.34836 8.1768 10.36227 3.372838
